<svg
  xmlns="http://www.w3.org/2000/svg"
  viewBox="0 0 64 64"
  width="64"
  height="64"
  fill="none"
>
  <rect x="4" y="4" width="56" height="12" fill="#333" />
  <rect x="4" y="4" width="56" height="12" fill-opacity="0.1" stroke="#FFF" stroke-width="1" />
  <polygon points="4,4 12,4 8,12 0,12" fill="#FFF" />
  <polygon points="16,4 24,4 20,12 12,12" fill="#FFF" />
  <polygon points="28,4 36,4 32,12 24,12" fill="#FFF" />
  <polygon points="40,4 48,4 44,12 36,12" fill="#FFF" />
  <polygon points="52,4 60,4 56,12 48,12" fill="#FFF" />
  <rect x="4" y="16" width="56" height="44" fill="#555" stroke="#FFF" stroke-width="2" />
  <circle cx="32" cy="38" r="8" fill="#222" />
  <polygon points="28,34 40,38 28,42" fill="#FFF" />
</svg>